<svg width="400" height="300" xmlns="http://www.w3.org/2000/svg">
  <defs>
    <linearGradient id="employeeGradient" x1="0%" y1="0%" x2="100%" y2="100%">
      <stop offset="0%" stop-color="#4338CA" stop-opacity="0.2"/>
      <stop offset="100%" stop-color="#6366F1" stop-opacity="0.2"/>
    </linearGradient>
  </defs>
  <rect width="400" height="300" fill="url(#employeeGradient)" rx="20" />
  
  <!-- Employee Cards -->
  <rect x="50" y="50" width="300" height="200" rx="10" fill="#FFFFFF" stroke="#E5E7EB" stroke-width="2"/>
  
  <!-- Employee 1 -->
  <circle cx="90" y="90" r="20" fill="#6366F1" opacity="0.7"/>
  <rect x="120" y="80" width="80" height="10" rx="2" fill="#4B5563"/>
  <rect x="120" y="100" width="60" height="8" rx="2" fill="#9CA3AF"/>
  
  <!-- Employee 2 -->
  <circle cx="90" y="150" r="20" fill="#6366F1" opacity="0.7"/>
  <rect x="120" y="140" width="80" height="10" rx="2" fill="#4B5563"/>
  <rect x="120" y="160" width="60" height="8" rx="2" fill="#9CA3AF"/>
  
  <!-- Employee 3 -->
  <circle cx="90" y="210" r="20" fill="#6366F1" opacity="0.7"/>
  <rect x="120" y="200" width="80" height="10" rx="2" fill="#4B5563"/>
  <rect x="120" y="220" width="60" height="8" rx="2" fill="#9CA3AF"/>
  
  <!-- Skills Bars -->
  <rect x="220" y="85" width="100" height="8" rx="4" fill="#E5E7EB"/>
  <rect x="220" y="85" width="70" height="8" rx="4" fill="#6366F1" opacity="0.7"/>
  
  <rect x="220" y="105" width="100" height="8" rx="4" fill="#E5E7EB"/>
  <rect x="220" y="105" width="60" height="8" rx="4" fill="#6366F1" opacity="0.7"/>
  
  <rect x="220" y="145" width="100" height="8" rx="4" fill="#E5E7EB"/>
  <rect x="220" y="145" width="80" height="8" rx="4" fill="#6366F1" opacity="0.7"/>
  
  <rect x="220" y="165" width="100" height="8" rx="4" fill="#E5E7EB"/>
  <rect x="220" y="165" width="50" height="8" rx="4" fill="#6366F1" opacity="0.7"/>
  
  <rect x="220" y="205" width="100" height="8" rx="4" fill="#E5E7EB"/>
  <rect x="220" y="205" width="90" height="8" rx="4" fill="#6366F1" opacity="0.7"/>
  
  <rect x="220" y="225" width="100" height="8" rx="4" fill="#E5E7EB"/>
  <rect x="220" y="225" width="75" height="8" rx="4" fill="#6366F1" opacity="0.7"/>
</svg> 