<svg xmlns="http://www.w3.org/2000/svg" width="120" height="120" viewBox="0 0 120 120" fill="none">
  <circle cx="60" cy="60" r="60" fill="#DCFCE7" opacity="0.5"/>
  <circle cx="60" cy="60" r="50" fill="#4ADE80" opacity="0.3"/>
  <circle cx="60" cy="60" r="40" fill="white"/>
  <path d="M60 20C37.9086 20 20 37.9086 20 60C20 82.0914 37.9086 100 60 100C82.0914 100 100 82.0914 100 60C100 37.9086 82.0914 20 60 20Z" stroke="#10B981" stroke-width="4"/>
  <path d="M40 60L52 72L80 44" stroke="#10B981" stroke-width="8" stroke-linecap="round" stroke-linejoin="round"/>
  <path d="M48 40L45 37M72 40L75 37M60 34V31" stroke="#10B981" stroke-width="2" stroke-linecap="round"/>
  <path d="M48 80L45 83M72 80L75 83M60 86V89" stroke="#10B981" stroke-width="2" stroke-linecap="round"/>
</svg> 